<?xml version="1.0" encoding="UTF-8"?>
<svg xmlns="http://www.w3.org/2000/svg" xmlns:xlink="http://www.w3.org/1999/xlink" width="54px" height="54px" viewBox="0 0 54 54" version="1.1">
<defs>
<linearGradient id="linear0" gradientUnits="userSpaceOnUse" x1="360.879089" y1="351.455292" x2="141.212997" y2="-69.293602" gradientTransform="matrix(0.135781,0,0,-0.173207,0.000000000000003856,54.392761)">
<stop offset="0" style="stop-color:rgb(0%,100%,63.921569%);stop-opacity:1;"/>
<stop offset="1" style="stop-color:rgb(86.27451%,12.156863%,100%);stop-opacity:1;"/>
</linearGradient>
<linearGradient id="linear1" gradientUnits="userSpaceOnUse" x1="264.829102" y1="401.60141" x2="45.162998" y2="-19.147499" gradientTransform="matrix(0.135781,0,0,-0.173207,0.000000000000003856,54.392761)">
<stop offset="0" style="stop-color:rgb(0%,100%,63.921569%);stop-opacity:1;"/>
<stop offset="1" style="stop-color:rgb(86.27451%,12.156863%,100%);stop-opacity:1;"/>
</linearGradient>
<linearGradient id="linear2" gradientUnits="userSpaceOnUse" x1="312.548401" y1="376.687988" x2="92.882202" y2="-44.061001" gradientTransform="matrix(0.135781,0,0,-0.173207,0.000000000000003856,54.392761)">
<stop offset="0" style="stop-color:rgb(0%,100%,63.921569%);stop-opacity:1;"/>
<stop offset="1" style="stop-color:rgb(86.27451%,12.156863%,100%);stop-opacity:1;"/>
</linearGradient>
</defs>
<g id="surface1">
<path style=" stroke:none;fill-rule:nonzero;fill:url(#linear0);" d="M 8.769531 41.210938 C 9.097656 40.796875 9.546875 40.554688 10.019531 40.554688 L 53.117188 40.554688 C 53.90625 40.554688 54.296875 41.765625 53.742188 42.476562 L 45.230469 53.335938 C 44.902344 53.75 44.453125 53.996094 43.980469 53.996094 L 0.882812 53.996094 C 0.09375 53.996094 -0.296875 52.78125 0.257812 52.070312 Z M 8.769531 41.210938 "/>
<path style=" stroke:none;fill-rule:nonzero;fill:url(#linear1);" d="M 8.769531 0.664062 C 9.109375 0.25 9.558594 0.00390625 10.019531 0.00390625 L 53.117188 0.00390625 C 53.90625 0.00390625 54.296875 1.21875 53.742188 1.929688 L 45.230469 12.789062 C 44.902344 13.203125 44.453125 13.445312 43.980469 13.445312 L 0.882812 13.445312 C 0.09375 13.445312 -0.296875 12.234375 0.257812 11.523438 Z M 8.769531 0.664062 "/>
<path style=" stroke:none;fill-rule:nonzero;fill:url(#linear2);" d="M 45.230469 20.808594 C 44.902344 20.390625 44.453125 20.148438 43.980469 20.148438 L 0.882812 20.148438 C 0.09375 20.148438 -0.296875 21.363281 0.257812 22.070312 L 8.769531 32.933594 C 9.097656 33.347656 9.546875 33.589844 10.019531 33.589844 L 53.117188 33.589844 C 53.90625 33.589844 54.296875 32.378906 53.742188 31.667969 Z M 45.230469 20.808594 "/>
</g>
</svg>
